<svg xmlns="http://www.w3.org/2000/svg"  viewBox="0 0 24 24" width="24px" height="24px"><path d="M18.239,7.945l1.593-2.39c0.307-0.459,0.183-1.081-0.277-1.387c-0.462-0.308-1.081-0.182-1.387,0.277l-1.679,2.519 C15.117,6.35,13.601,6,12,6S8.883,6.35,7.511,6.964L5.832,4.445C5.526,3.986,4.907,3.86,4.445,4.168 c-0.46,0.306-0.584,0.927-0.277,1.387l1.593,2.39C2.887,9.929,1,13.243,1,17v1c0,1.105,0.895,2,2,2h18c1.105,0,2-0.895,2-2v-1 C23,13.243,21.113,9.929,18.239,7.945z" opacity=".35"/><circle cx="16.5" cy="14.5" r="1.5"/><circle cx="7.5" cy="14.5" r="1.5"/></svg>