<svg xmlns="http://www.w3.org/2000/svg" version="1.1" xmlns:xlink="http://www.w3.org/1999/xlink" xmlns:svgjs="http://svgjs.dev/svgjs" width="128" height="128" viewBox="0 0 128 128"><g transform="matrix(0.8046875,0,0,0.8046875,12.760752631578946,23.977193304670784)"><svg viewBox="0 0 95 74" data-background-color="#ffffff" preserveAspectRatio="xMidYMid meet" height="99" width="128" xmlns="http://www.w3.org/2000/svg" xmlns:xlink="http://www.w3.org/1999/xlink"><defs></defs><g id="tight-bounds" transform="matrix(1,0,0,1,-0.24049999999999727,0.17721143651645832)"><svg viewBox="0 0 95.481 73.6455771269671" height="73.6455771269671" width="95.481"><g><svg viewBox="0 0 95.481 73.6455771269671" height="73.6455771269671" width="95.481"><g><svg viewBox="0 0 95.481 73.6455771269671" height="73.6455771269671" width="95.481"><g><svg viewBox="0 0 95.481 73.6455771269671" height="73.6455771269671" width="95.481"><g><svg viewBox="0 0 95.481 73.6455771269671" height="73.6455771269671" width="95.481"><g><svg viewBox="0 0 95.481 73.6455771269671" height="73.6455771269671" width="95.481"><g><svg xmlns="http://www.w3.org/2000/svg" xmlns:xlink="http://www.w3.org/1999/xlink" version="1.1" x="0" y="0" viewBox="1.9829999999999988 13 96.017 74.059" enable-background="new 0 0 100 100" xml:space="preserve" height="73.6455771269671" width="95.481" class="icon-icon-0" data-fill-palette-color="accent" id="icon-0"><g fill="#ff7f50" data-fill-palette-color="accent"><path d="M91.978 87.059H8.008c-3.327 0-6.025-2.698-6.025-6.025 0-3.326 2.698-6.025 6.025-6.025h83.97c3.326 0 6.022 2.699 6.022 6.025C98 84.36 95.304 87.059 91.978 87.059z" fill="#ff7f50" data-fill-palette-color="accent"></path><path d="M38.912 58.799H8.008c-3.327 0-6.025-2.699-6.025-6.025V19.025C1.983 15.699 4.681 13 8.008 13h30.904c3.326 0 6.025 2.699 6.025 6.025v33.749C44.937 56.1 42.238 58.799 38.912 58.799zM14.033 46.748h18.853V25.051H14.033V46.748z" fill="#ff7f50" data-fill-palette-color="accent"></path><path d="M91.978 26.88H61.473c-3.327 0-6.026-2.699-6.026-6.026s2.699-6.025 6.026-6.025h30.505c3.326 0 6.022 2.698 6.022 6.025S95.304 26.88 91.978 26.88z" fill="#ff7f50" data-fill-palette-color="accent"></path><path d="M91.978 56.969H61.473c-3.327 0-6.026-2.697-6.026-6.024s2.699-6.025 6.026-6.025h30.505c3.326 0 6.022 2.698 6.022 6.025S95.304 56.969 91.978 56.969z" fill="#ff7f50" data-fill-palette-color="accent"></path></g></svg><g></g></g></svg></g></svg></g></svg></g></svg></g></svg></g></svg><rect width="95.481" height="73.6455771269671" fill="none" stroke="none" visibility="hidden"></rect></g></svg></g></svg>