<svg xmlns="http://www.w3.org/2000/svg" version="1.1" xmlns:xlink="http://www.w3.org/1999/xlink" xmlns:svgjs="http://svgjs.dev/svgjs" width="2000" height="469" viewBox="0 0 2000 469"><g transform="matrix(1,0,0,1,-1.2120925795451285,0.8389170131094659)"><svg viewBox="0 0 396 93" data-background-color="#ffffff" preserveAspectRatio="xMidYMid meet" height="469" width="2000" xmlns="http://www.w3.org/2000/svg" xmlns:xlink="http://www.w3.org/1999/xlink"><defs></defs><g id="tight-bounds" transform="matrix(1,0,0,1,0.23999468169483862,-0.16635241411339052)"><svg viewBox="0 0 395.52 93.33270244372436" height="93.33270244372436" width="395.52"><g><svg viewBox="0 0 599.2147135541162 141.39949575254818" height="93.33270244372436" width="395.52"><g transform="matrix(1,0,0,1,203.6947135541162,27.554333784803134)"><svg viewBox="0 0 395.52 86.29082818294191" height="86.29082818294191" width="395.52"><g><svg viewBox="0 0 395.52 86.29082818294191" height="86.29082818294191" width="395.52"><g><svg viewBox="0 0 395.52 86.29082818294191" height="86.29082818294191" width="395.52"><g transform="matrix(1,0,0,1,0,0)"><svg width="395.52" viewBox="4.599999904632568 -34.79999923706055 161.7899932861328 35.29999923706055" height="86.29082818294191" data-palette-color="#ff7f50"><path d="M4.6-34.3L9.5-34.3 9.5-4.45 25.25-4.45 25.95 0 4.6 0 4.6-34.3ZM29.45-34.3L42.35-34.3 42.35-29.85 38.35-29.85 38.35-4.45 42.35-4.45 42.35 0 29.45 0 29.45-4.45 33.45-4.45 33.45-29.85 29.45-29.85 29.45-34.3ZM60.7-34.8Q66.34-34.8 69.57-32.3 72.8-29.8 72.8-25.2L72.8-25.2 72.8-24.6 67.9-24.6 67.9-25.35Q67.9-27.75 65.95-29.05 64-30.35 60.8-30.35L60.8-30.35Q57.25-30.35 55.27-29.18 53.3-28 53.3-25.8L53.3-25.8Q53.3-24.15 54.42-23.1 55.55-22.05 57.22-21.45 58.9-20.85 61.85-20.1L61.85-20.1Q65.65-19.1 68-18.15 70.34-17.2 72.02-15.3 73.7-13.4 73.7-10.25L73.7-10.25Q73.7-4.65 70.27-2.08 66.84 0.5 60.65 0.5L60.65 0.5Q54.45 0.5 51.02-2.13 47.6-4.75 47.6-9.75L47.6-9.75 47.65-10.75 52.55-10.75 52.5-9.7Q52.5-6.8 54.67-5.38 56.85-3.95 60.7-3.95L60.7-3.95Q64.45-3.95 66.62-5.33 68.8-6.7 68.8-9.1L68.8-9.1Q68.8-11 67.62-12.18 66.45-13.35 64.67-14 62.9-14.65 59.85-15.45L59.85-15.45Q56.1-16.45 53.85-17.35 51.6-18.25 50-20.13 48.4-22 48.4-25.05L48.4-25.05Q48.4-30 51.75-32.4 55.1-34.8 60.7-34.8L60.7-34.8ZM77.59-34.3L103.99-34.3 103.99-29.85 93.24-29.85 93.24 0 88.34 0 88.34-29.85 77.59-29.85 77.59-34.3ZM109.84-34.3L132.34-34.3 131.69-29.85 114.74-29.85 114.74-19.75 130.09-19.75 130.09-15.3 114.74-15.3 114.74-4.45 131.99-4.45 132.69 0 109.84 0 109.84-34.3ZM154.09-34.3Q158.64-34.3 161.56-32.15 164.49-30 164.49-26.25L164.49-26.25Q164.49-22.9 162.71-20.55 160.94-18.2 158.34-17.7L158.34-17.7 158.34-17.45Q160.74-16.5 162.29-14.15 163.84-11.8 163.84-8.5L163.84-8.5Q163.84-5.75 164.14-4.35 164.44-2.95 164.94-2.4 165.44-1.85 166.39-1.55L166.39-1.55 166.39-0.15Q165.29 0.3 164.04 0.3L164.04 0.3Q161.64 0.3 160.29-1.13 158.94-2.55 158.94-6.5L158.94-6.5Q158.94-10.55 157.26-12.83 155.59-15.1 153.09-15.1L153.09-15.1 144.39-15.1 144.39 0 139.49 0 139.49-34.3 154.09-34.3ZM154.14-29.85L144.39-29.85 144.39-19.55 154.14-19.55Q156.29-19.55 157.94-21 159.59-22.45 159.59-24.6L159.59-24.6 159.59-24.8Q159.59-27 158.09-28.43 156.59-29.85 154.14-29.85L154.14-29.85Z" opacity="1" transform="matrix(1,0,0,1,0,0)" fill="#ff7f50" class="undefined-text-0" data-fill-palette-color="primary" id="text-0"></path></svg></g></svg></g></svg></g></svg></g><g><svg viewBox="0 0 183.32352 141.39949575254818" height="141.39949575254818" width="183.32352"><g><svg xmlns="http://www.w3.org/2000/svg" xmlns:xlink="http://www.w3.org/1999/xlink" version="1.1" x="0" y="0" viewBox="1.9830002784729004 13 96.01700592041016 74.05899810791016" enable-background="new 0 0 100 100" xml:space="preserve" height="141.39949575254818" width="183.32352" class="icon-icon-0" data-fill-palette-color="accent" id="icon-0"><g fill="#ff7f50" data-fill-palette-color="accent"><path d="M91.978 87.059H8.008c-3.327 0-6.025-2.698-6.025-6.025 0-3.326 2.698-6.025 6.025-6.025h83.97c3.326 0 6.022 2.699 6.022 6.025C98 84.36 95.304 87.059 91.978 87.059z" fill="#ff7f50" data-fill-palette-color="accent"></path><path d="M38.912 58.799H8.008c-3.327 0-6.025-2.699-6.025-6.025V19.025C1.983 15.699 4.681 13 8.008 13h30.904c3.326 0 6.025 2.699 6.025 6.025v33.749C44.937 56.1 42.238 58.799 38.912 58.799zM14.033 46.748h18.853V25.051H14.033V46.748z" fill="#ff7f50" data-fill-palette-color="accent"></path><path d="M91.978 26.88H61.473c-3.327 0-6.026-2.699-6.026-6.026s2.699-6.025 6.026-6.025h30.505c3.326 0 6.022 2.698 6.022 6.025S95.304 26.88 91.978 26.88z" fill="#ff7f50" data-fill-palette-color="accent"></path><path d="M91.978 56.969H61.473c-3.327 0-6.026-2.697-6.026-6.024s2.699-6.025 6.026-6.025h30.505c3.326 0 6.022 2.698 6.022 6.025S95.304 56.969 91.978 56.969z" fill="#ff7f50" data-fill-palette-color="accent"></path></g></svg></g></svg></g></svg></g></svg><rect width="395.52" height="93.33270244372436" fill="none" stroke="none" visibility="hidden"></rect></g></svg></g></svg>